# Blender v2.83.0 OBJ File: 'Card.blend'
# www.blender.org
mtllib Card.mtl
o CardMesh_CardBack_01
v -0.000000 -0.500000 0.313859
v -0.000000 -0.469697 -0.343750
v -0.000000 -0.469697 0.343750
v -0.000000 -0.500000 -0.313859
v 0.000000 0.500000 -0.313859
v 0.000000 0.469697 0.343750
v 0.000000 0.500000 0.313859
v 0.000000 0.469697 -0.343750
v -0.000000 -0.500000 0.313909
v -0.000000 -0.469747 0.343750
v -0.000000 -0.497697 0.325328
v -0.000000 -0.491139 0.335010
v -0.000000 -0.481324 0.341478
v -0.000000 -0.469747 -0.343750
v -0.000000 -0.500000 -0.313909
v -0.000000 -0.481324 -0.341478
v -0.000000 -0.491139 -0.335010
v -0.000000 -0.497697 -0.325328
v 0.000000 0.469747 0.343750
v 0.000000 0.500000 0.313909
v 0.000000 0.481324 0.341478
v 0.000000 0.491139 0.335010
v 0.000000 0.497697 0.325328
v 0.000000 0.500000 -0.313909
v 0.000000 0.469747 -0.343750
v 0.000000 0.497697 -0.325328
v 0.000000 0.491139 -0.335010
v 0.000000 0.481324 -0.341478
v -0.010446 -0.500000 0.313859
v -0.010446 -0.469697 -0.343750
v -0.010446 -0.469697 0.343750
v -0.010446 -0.500000 -0.313859
v -0.010446 0.500000 -0.313859
v -0.010446 0.469697 0.343750
v -0.010446 0.500000 0.313859
v -0.010446 0.469697 -0.343750
v -0.010446 -0.500000 0.313909
v -0.010446 -0.469747 0.343750
v -0.010446 -0.497697 0.325328
v -0.010446 -0.491139 0.335010
v -0.010446 -0.481324 0.341478
v -0.010446 -0.469747 -0.343750
v -0.010446 -0.500000 -0.313909
v -0.010446 -0.481324 -0.341478
v -0.010446 -0.491139 -0.335010
v -0.010446 -0.497697 -0.325328
v -0.010446 0.469747 0.343750
v -0.010446 0.500000 0.313909
v -0.010446 0.481324 0.341478
v -0.010446 0.491139 0.335010
v -0.010446 0.497697 0.325328
v -0.010446 0.500000 -0.313909
v -0.010446 0.469747 -0.343750
v -0.010446 0.497697 -0.325328
v -0.010446 0.491139 -0.335010
v -0.010446 0.481324 -0.341478
vt 0.956522 1.000000
vt 0.956594 1.000000
vt 0.973205 0.997697
vt 0.987287 0.991139
vt 0.996696 0.981324
vt 1.000000 0.969747
vt 1.000000 0.969697
vt 0.956522 0.000000
vt 1.000000 0.030303
vt 1.000000 0.030253
vt 0.996696 0.018676
vt 0.987287 0.008861
vt 0.973205 0.002303
vt 0.956594 0.000000
vt 0.000000 0.969697
vt 0.000000 0.969747
vt 0.003304 0.981324
vt 0.012713 0.991139
vt 0.026795 0.997697
vt 0.043406 1.000000
vt 0.043478 1.000000
vt 0.000000 0.030253
vt 0.000000 0.030303
vt 0.043478 0.000000
vt 0.043406 0.000000
vt 0.026795 0.002303
vt 0.012713 0.008861
vt 0.003304 0.018676
vt 0.956522 1.000000
vt 1.000000 0.969697
vt 1.000000 0.969747
vt 0.996696 0.981324
vt 0.987287 0.991139
vt 0.973205 0.997697
vt 0.956594 1.000000
vt 0.043478 1.000000
vt 0.000000 0.969697
vt 0.000000 0.030303
vt 0.043478 0.000000
vt 0.956522 0.000000
vt 1.000000 0.030303
vt 0.956594 0.000000
vt 0.973205 0.002303
vt 0.987287 0.008861
vt 0.996696 0.018676
vt 1.000000 0.030253
vt 0.043406 1.000000
vt 0.026795 0.997697
vt 0.012713 0.991139
vt 0.003304 0.981324
vt 0.000000 0.969747
vt 0.000000 0.030253
vt 0.003304 0.018676
vt 0.012713 0.008861
vt 0.026795 0.002303
vt 0.043406 0.000000
vn -1.0000 0.0000 0.0000
vn 1.0000 -0.0000 -0.0000
vn 0.0000 -0.8279 -0.5608
vn 0.0000 0.5503 -0.8350
vn 0.0000 -0.5503 -0.8350
vn 0.0000 0.8279 -0.5608
vn 0.0000 -0.1925 -0.9813
vn 0.0000 0.9803 -0.1977
vn 0.0000 -1.0000 0.0000
vn 0.0000 1.0000 0.0000
vn 0.0000 0.0000 1.0000
vn 0.0000 0.0000 -1.0000
vn 0.0000 -0.1925 0.9813
vn 0.0000 0.9803 0.1977
vn 0.0000 -0.5503 0.8350
vn 0.0000 0.8279 0.5608
vn 0.0000 -0.8279 0.5608
vn 0.0000 0.5503 0.8350
vn 0.0000 -0.9803 0.1977
vn 0.0000 0.1925 0.9813
vn 0.0000 -0.9803 -0.1977
vn 0.0000 0.1925 -0.9813
usemtl CardBack
s off
f 5/1/1 24/2/1 26/3/1 27/4/1 28/5/1 25/6/1 8/7/1
f 4/8/1 2/9/1 14/10/1 16/11/1 17/12/1 18/13/1 15/14/1
f 6/15/1 19/16/1 21/17/1 22/18/1 23/19/1 20/20/1 7/21/1
f 10/22/1 3/23/1 1/24/1 9/25/1 11/26/1 12/27/1 13/28/1
f 33/29/2 36/30/2 53/31/2 56/32/2 55/33/2 54/34/2 52/35/2
f 35/36/2 34/37/2 31/38/2 29/39/2 32/40/2 30/41/2 36/30/2 33/29/2
f 32/40/2 43/42/2 46/43/2 45/44/2 44/45/2 42/46/2 30/41/2
f 34/37/2 35/36/2 48/47/2 51/48/2 50/49/2 49/50/2 47/51/2
f 38/52/2 41/53/2 40/54/2 39/55/2 37/56/2 29/39/2 31/38/2
usemtl CardFront
f 7/21/1 5/1/1 8/7/1 2/9/1 4/8/1 1/24/1 3/23/1 6/15/1
usemtl Rim
f 23/19/3 22/18/3 50/49/3 51/48/3
f 13/28/4 12/27/4 40/54/4 41/53/4
f 22/18/5 21/17/5 49/50/5 50/49/5
f 12/27/6 11/26/6 39/55/6 40/54/6
f 21/17/7 19/16/7 47/51/7 49/50/7
f 11/26/8 9/25/8 37/56/8 39/55/8
f 24/2/9 5/1/9 33/29/9 52/35/9
f 9/25/10 1/24/10 29/39/10 37/56/10
f 1/24/10 4/8/10 32/40/10 29/39/10
f 8/7/11 25/6/11 53/31/11 36/30/11
f 4/8/10 15/14/10 43/42/10 32/40/10
f 6/15/12 3/23/12 31/38/12 34/37/12
f 25/6/13 28/5/13 56/32/13 53/31/13
f 15/14/14 18/13/14 46/43/14 43/42/14
f 5/1/9 7/21/9 35/36/9 33/29/9
f 28/5/15 27/4/15 55/33/15 56/32/15
f 18/13/16 17/12/16 45/44/16 46/43/16
f 2/9/11 8/7/11 36/30/11 30/41/11
f 27/4/17 26/3/17 54/34/17 55/33/17
f 17/12/18 16/11/18 44/45/18 45/44/18
f 26/3/19 24/2/19 52/35/19 54/34/19
f 16/11/20 14/10/20 42/46/20 44/45/20
f 14/10/11 2/9/11 30/41/11 42/46/11
f 19/16/12 6/15/12 34/37/12 47/51/12
f 7/21/9 20/20/9 48/47/9 35/36/9
f 3/23/12 10/22/12 38/52/12 31/38/12
f 20/20/21 23/19/21 51/48/21 48/47/21
f 10/22/22 13/28/22 41/53/22 38/52/22
